 http://www.torrentday.com - Your Key To The Scene.

we are the most on-time tracker around the globe, You can download releases whenever they release out by group uploaders. no Wait Time.


TorrentDay is a private tracker torrent website, which is totally free, safe and fast.


Higher Speed Download is available at: TorrentDay - Your Gateway To The Scene.

...................................NFO:....................................




                     Avatar DVDScr xvid - IMAGiNE

                                


Ripper ...........: IMAGiNE                                      IMDB Rating.......:8.6/10                              
Video Codec.......: XVID                                         Release Date......:2010-12-31
Audio Codec.......:AC3                                           Theatre Date......:12/18/09
Audio Bitrate.....:192                                           Runtime...........:162 mn
Subtitles.........:Harcoded Where Nedded                                           Language..........:ENGLISH
Resolution...... 656 x 368                                       IMDB URL..........:http://www.imdb.com/title/tt0499549/


[color=yellow]DETAILS:[/color]

Format                           : AVI
Format/Info                      : Audio Video Interleave
Format profile                   : OpenDML
File size                        : 2.06 GiB
Duration                         : 2h 36mn
Overall bit rate                 : 1 876 Kbps
Writing application              : VirtualDubMod 1.5.10.2 (build 2540/release)
Writing library                  : VirtualDubMod build 2540/release

Video
ID                               : 0
Format                           : MPEG-4 Visual
Format profile                   : Advanced Simple@L5
Format settings, BVOP            : Yes
Format settings, QPel            : No
Format settings, GMC             : No warppoints
Format settings, Matrix          : Default (MPEG)
Codec ID                         : XVID
Codec ID/Hint                    : XviD
Duration                         : 2h 36mn
Bit rate                         : 1 672 Kbps
Width                            : 656 pixels
Height                           : 368 pixels
Display aspect ratio             : 16:9
Frame rate                       : 23.976 fps
Resolution                       : 8 bits
Colorimetry                      : 4:2:0
Scan type                        : Progressive
Bits/(Pixel*Frame)               : 0.289
Stream size                      : 1.83 GiB (89%)
Writing library                  : XviD 1.2.1 (UTC 2008-12-04)

Audio
ID                               : 1
Format                           : AC-3
Format/Info                      : Audio Coding 3
Codec ID                         : 2000
Duration                         : 2h 36mn
Bit rate mode                    : Constant
Bit rate                         : 192 Kbps
Channel(s)                       : 2 channels
Channel positions                : L R
Sampling rate                    : 48.0 KHz
Stream size                      : 216 MiB (10%)
Alignment                        : Split accross interleaves
Interleave, duration             : 42 ms (1.00 video frame)
Interleave, preload duration     : 500 ms




[color=yellow]NOTES:[/color]

IMAGiNE bringing you another release.....

We found the dvd scr.we did our normal stuff to it saturation,contrast and brightness.but it was very little as the original file was decent.